<?xml version="1.0" encoding="utf-8"?>
<svg version="1.1" id="logoSmall" xmlns="http://www.w3.org/2000/svg" xmlns:xlink="http://www.w3.org/1999/xlink">
	<g>
		<path d="M53.3,55H1.7C0.7,55,0,54.2,0,53.3V1.7C0,0.7,0.7,0,1.7,0h51.7C54.2,0,55,0.7,55,1.7v51.7C55,54.2,54.2,55,53.3,55z
		 M2.6,52.4h49.8V2.6H2.6V52.4z" />
	</g>
	<g>
		<path d="M21.4,6.6c0.1,0.1,0.1,0.2,0,0.4l-5.8,16.9c-0.1,0.3-0.4,0.5-0.8,0.5h-3c-0.4,0-0.6-0.2-0.8-0.5L5.3,7l0-0.2
		c0-0.1,0-0.2,0.1-0.3c0.1-0.1,0.2-0.1,0.3-0.1h3.5c0.3,0,0.4,0.1,0.5,0.4l4,12.3c0,0.1,0.1,0.2,0.1,0.2c0.1,0,0.1-0.1,0.2-0.2
		l3.9-12.3c0.1-0.3,0.3-0.4,0.5-0.4h2.7C21.2,6.4,21.3,6.5,21.4,6.6z" />
	</g>
	<g>
		<path d="M48.5,31.4c0.2,0,0.3,0.1,0.3,0.4V49c0,0.1,0,0.2-0.1,0.3c-0.1,0.1-0.2,0.1-0.3,0.1h-2.5c-0.1,0-0.3,0-0.3,0
		c-0.1,0-0.2-0.1-0.3-0.2l-7.7-10.9c-0.1-0.1-0.1-0.1-0.2-0.1c-0.1,0-0.1,0.1-0.1,0.1V49V49c0,0.1,0,0.2-0.1,0.3
		c-0.1,0.1-0.2,0.1-0.4,0.1h-2.5c-0.3,0-0.5-0.1-0.5-0.4V31.8c0-0.3,0.1-0.5,0.4-0.5h2.9c0.2,0,0.3,0,0.4,0.1s0.2,0.1,0.3,0.3
		L45,41.9c0.1,0.1,0.2,0.2,0.2,0.2c0.1,0,0.1-0.1,0.1-0.3v-10c0-0.3,0.1-0.4,0.4-0.4H48.5z" />
	</g>
	<g>
		<path d="M26.7,22.1c0.5,0.2,0.9,0.5,1.2,0.8c0.3,0.4,0.4,0.8,0.4,1.2c0,0.5-0.2,0.9-0.6,1.5s-0.9,0.9-1.5,1.2
		c-0.1,0-0.1,0.1-0.1,0.1s0,0.1,0.1,0.1l1.3,1.4c0.1,0.1,0.1,0.1,0.2,0.1s0.1,0,0.2-0.1c0.4-0.5,0.7-1,0.9-1.5
		c0.1-0.1,0.1-0.2,0.2-0.2c0,0,0.1,0,0.1,0l1.3,0.4c0.1,0,0.2,0.1,0.2,0.2c0,0.1,0.1,0.2,0,0.3c-0.2,0.3-0.3,0.7-0.6,1
		c-0.2,0.3-0.5,0.7-0.9,1.2c0,0,0,0-0.1,0.1c0,0,0,0.1,0,0.1c0,0,0,0.1,0.1,0.1c0.4,0.3,1,0.4,1.6,0.5c0.1,0,0.2,0,0.2,0.1
		s0.1,0.1,0.1,0.2v1.5c0,0.1,0,0.2-0.1,0.3c-0.1,0.1-0.1,0.1-0.2,0.1c-1.4,0-2.6-0.3-3.5-1c-0.1,0-0.2-0.1-0.2-0.1
		c0,0-0.1,0-0.2,0.1c-0.5,0.4-1,0.6-1.6,0.8c-0.6,0.2-1.2,0.3-1.9,0.3c-1.2,0-2.1-0.3-2.7-0.8c-0.6-0.5-1-1.2-1-2.1
		c0-0.6,0.2-1.1,0.6-1.6c0.4-0.5,1-1,1.9-1.4c0.1-0.1,0.1-0.1,0.1-0.2s0-0.1-0.1-0.2c-0.3-0.3-0.5-0.6-0.7-1
		c-0.2-0.4-0.2-0.7-0.2-1.1c0-0.5,0.1-1,0.4-1.4c0.3-0.4,0.7-0.7,1.2-0.9s1.1-0.3,1.8-0.3C25.6,21.8,26.2,21.9,26.7,22.1z
		 M23.7,28.1c0,0-0.1,0-0.2,0.1c-0.3,0.2-0.5,0.4-0.7,0.6c-0.2,0.2-0.2,0.5-0.2,0.7c0,0.3,0.1,0.7,0.4,0.9c0.3,0.3,0.6,0.4,1,0.4
		c0.2,0,0.5,0,0.8-0.1s0.5-0.2,0.7-0.4c0.1-0.1,0.1-0.1,0.1-0.2c0,0,0-0.1-0.1-0.2l-1.6-1.8C23.9,28.2,23.8,28.1,23.7,28.1z
		 M24.3,23.6C24.1,23.7,24,24,24,24.2c0,0.2,0.1,0.4,0.3,0.7l0.5,0.6c0,0,0.1,0.1,0.2,0.1c0,0,0.1,0,0.1,0c0.6-0.3,1-0.8,1-1.3
		c0-0.3-0.1-0.5-0.3-0.7c-0.2-0.2-0.5-0.3-0.8-0.3C24.7,23.3,24.5,23.4,24.3,23.6z" />
	</g>
</svg>
